solid reference_cube
   facet normal 1.000000e+00 6.776264e-17 0.000000e+00
      outer loop
         vertex -6.776264e-19 1.000000e-02 0.000000e+00
         vertex 0.000000e+00 3.204058e-313 1.000000e-02
         vertex 0.000000e+00 3.204058e-313 0.000000e+00
      endloop
   endfacet
   facet normal 0.000000e+00 1.000000e+00 0.000000e+00
      outer loop
         vertex 0.000000e+00 3.204058e-313 1.000000e-02
         vertex 1.000000e-02 3.204058e-313 0.000000e+00
         vertex 0.000000e+00 3.204058e-313 0.000000e+00
      endloop
   endfacet
   facet normal 0.000000e+00 0.000000e+00 1.000000e+00
      outer loop
         vertex 1.000000e-02 3.204058e-313 0.000000e+00
         vertex -6.776264e-19 1.000000e-02 0.000000e+00
         vertex 0.000000e+00 3.204058e-313 0.000000e+00
      endloop
   endfacet
endsolid