solid reference_cube
   facet normal 1.000000e+00 0.000000e+00 0.000000e+00
      outer loop
         vertex 0.000000e+00 1.000000e-02 1.604658e-34
         vertex 0.000000e+00 7.679412e-313 1.000000e-02
         vertex 0.000000e+00 7.679412e-313 0.000000e+00
      endloop
   endfacet
   facet normal 1.000000e+00 0.000000e+00 -0.000000e+00
      outer loop
         vertex 0.000000e+00 1.000000e-02 1.604658e-34
         vertex 0.000000e+00 1.000000e-02 1.000000e-02
         vertex 0.000000e+00 7.679412e-313 1.000000e-02
      endloop
   endfacet
   facet normal 0.000000e+00 -0.000000e+00 1.000000e+00
      outer loop
         vertex 1.000000e-02 7.679412e-313 0.000000e+00
         vertex 1.000000e-02 1.000000e-02 0.000000e+00
         vertex 0.000000e+00 7.679412e-313 0.000000e+00
      endloop
   endfacet
   facet normal 0.000000e+00 0.000000e+00 1.000000e+00
      outer loop
         vertex 1.000000e-02 1.000000e-02 0.000000e+00
         vertex -1.355253e-18 1.000000e-02 0.000000e+00
         vertex 0.000000e+00 7.679412e-313 0.000000e+00
      endloop
   endfacet
   facet normal 0.000000e+00 1.000000e+00 0.000000e+00
      outer loop
         vertex 2.710505e-18 7.679412e-313 1.000000e-02
         vertex 1.000000e-02 7.679412e-313 0.000000e+00
         vertex 0.000000e+00 7.679412e-313 0.000000e+00
      endloop
   endfacet
   facet normal -0.000000e+00 1.000000e+00 0.000000e+00
      outer loop
         vertex 2.710505e-18 7.679412e-313 1.000000e-02
         vertex 1.000000e-02 7.679412e-313 1.000000e-02
         vertex 1.000000e-02 7.679412e-313 0.000000e+00
      endloop
   endfacet
endsolid